<svg width="64" height="64" viewBox="0 0 64 64" fill="none" xmlns="http://www.w3.org/2000/svg">
  <rect width="64" height="64" rx="16" fill="#156F63"/>
  <path d="M16 21C16 18.7909 17.7909 17 20 17H45C47.2091 17 49 18.7909 49 21V24H20C17.7909 24 16 25.7909 16 28V21Z" fill="#F4EFE2"/>
  <path d="M16 28C16 25.7909 17.7909 24 20 24H49V32H20C17.7909 32 16 33.7909 16 36V28Z" fill="#F1A15B"/>
  <path d="M16 36C16 33.7909 17.7909 32 20 32H49V44C49 46.2091 47.2091 48 45 48H20C17.7909 48 16 46.2091 16 44V36Z" fill="#0F5C52"/>
</svg>