<svg width="128" height="128" viewBox="0 0 128 128" fill="none" xmlns="http://www.w3.org/2000/svg">
  <rect width="128" height="128" rx="28" fill="#F4EFE2"/>
  <path d="M31 35C31 30.5817 34.5817 27 39 27H90C94.4183 27 98 30.5817 98 35V42H39C34.5817 42 31 45.5817 31 50V35Z" fill="#156F63"/>
  <path d="M31 50C31 45.5817 34.5817 42 39 42H98V57H39C34.5817 57 31 60.5817 31 65V50Z" fill="#CE5F2D"/>
  <path d="M31 65C31 60.5817 34.5817 57 39 57H98V93C98 97.4183 94.4183 101 90 101H39C34.5817 101 31 97.4183 31 93V65Z" fill="#0F5C52"/>
  <path d="M53 73H78.5C83.7467 73 88 77.2533 88 82.5C88 87.7467 83.7467 92 78.5 92H53V73Z" fill="#F4EFE2"/>
</svg>